<?xml version="1.0" encoding="UTF-8"?> <svg xmlns="http://www.w3.org/2000/svg" width="38.696" height="45.265" viewBox="0 0 38.696 45.265"><g id="Group_3884" data-name="Group 3884" opacity="0.9"><path id="Path_25817" data-name="Path 25817" d="M12.453,6.911-1.619,12.958a5.276,5.276,0,0,0-3.192,4.848v9c0,11.538,11.216,24.945,19.348,24.945,8.692,0,19.348-13.408,19.348-24.945v-9a5.276,5.276,0,0,0-3.192-4.848L16.621,6.911A5.281,5.281,0,0,0,12.453,6.911Z" transform="translate(4.811 -6.482)" fill="#00aeef" fill-rule="evenodd"></path><path id="Path_25818" data-name="Path 25818" d="M4.207,14.217H19.192a5.279,5.279,0,0,1,5.152,6.42l-.332,1.5a10.106,10.106,0,0,1-9.867,7.915H9.255A10.106,10.106,0,0,1-.613,22.132l-.332-1.5a5.275,5.275,0,0,1,4.007-6.3A5.331,5.331,0,0,1,4.2,14.217Z" transform="translate(7.648 -0.612)" fill="#fff" fill-rule="evenodd"></path><g id="Group_3883" data-name="Group 3883" transform="translate(12.312 18.178)"><circle id="Ellipse_193" data-name="Ellipse 193" cx="2.111" cy="2.111" r="2.111" transform="translate(0)" fill="#00aeef"></circle><circle id="Ellipse_194" data-name="Ellipse 194" cx="2.111" cy="2.111" r="2.111" transform="translate(9.85)" fill="#00aeef"></circle></g></g></svg> 